<svg width="1440" height="342" fill="none" xmlns="http://www.w3.org/2000/svg"><path d="M1538 180.619l-57.07 29.818-68.83-21.696 34.3-102.6 46.71-24.047 45 89.241v-2.351l-44.04-87.317 44.04-22.658v-1.175l-44.46 22.871-13.58-26.932L1490.65 0h-1.07L1479 33.666v.427l13.68 27.146-46.92 24.154c-.1.107-.21.214-.21.32l-34.42 102.814-103.35-32.489h-.43l-47.77 24.581-14.32-27.146c-.11-.107-.22-.214-.32-.214l-171.97-53.651L1100.01 0h-1.07L1072 98.752 1017.28 0h-1.17l55.36 99.928-65.3 37.406-68.834-18.81 27.575-101.21L995.051 0h-2.138l-28.857 16.459c-.107.107-.214.213-.214.32l-46.707 171.535h.214c-.214 0-.32.214-.427.32l-140.654 75.775c-.107.107-.214.213-.214.32l-8.123 25.757-44.676-13.68h-.427l-85.504 44.033-45.638-84.538c-.106-.107-.213-.214-.32-.214l-45.638-13.894 7.696-26.184v-.428L477.325 55.148c0-.214 0-.321-.214-.428a.68.68 0 00-.641 0l-141.188 77.805c-.107.107-.214.214-.214.321l-7.375 23.512-46.813-14.001h-.427l-84.649 45.636-44.997-83.469c-.106-.107-.213-.214-.32-.214l-45.638-13.68 7.802-26.398v-.428L78.129 0h-1.176l34.629 64.125-7.695 26.184L0 59.21v1.069L103.46 91.27 71.823 199 0 65.835v2.244l71.503 132.632c.106.107.213.214.32.214l221.562 66.369h.107c.107 0 .214 0 .214-.106l142.684-76.95 76.099 142.357c.106.107.213.214.32.214l30.461 9.084h3.741l-33.347-9.939 31.957-108.585 45.317 13.894 45.531 84.324L596.71 342h2.351l37.836-19.558L647.478 342h1.175l-10.794-19.986 85.29-43.925 44.462 13.573L751.792 342h1.069l15.712-50.124 106.772 32.597L841.892 342h2.351l32.385-16.993L885.82 342h1.175l-9.084-16.779L933.916 342h3.74l-60.173-18.062 40.08-133.7 75.35 139.792-3.527 11.97h1.069l3.206-11.008L1006.38 342h1.6l-13.677-11.863 150.277-89.134L1112.83 342h1.07l31.96-101.531 173.25 55.147h.21c.11 0 .22 0 .22-.107L1538 181.794v-1.175zm-993.127 41.36l-107.521-32.81 14.429-48.201 25.223-84.217 75.564 139.258-7.695 25.97zM336.03 133.38l139.906-77.164-25.117 84.111-14.536 48.521-107.628-32.169 7.375-23.299zM104.528 91.592l45.424 13.573 44.89 83.256-57.395 30.993-64.769-19.344 31.85-108.478zm90.848 97.897l30.461 56.43-86.893-25.97 56.432-30.46zm97.795 76.63l-65.945-19.772-30.995-57.392 84.435-45.529 46.6 14.001-34.095 108.692zm35.164-108.478l106.986 32.062-140.867 75.988 33.881-108.05zm184.474 173.351l-75.136-140.541 106.879 32.597-31.743 107.944zm966.731-119.914l-90.85 47.346 22.98-68.721 67.87 21.375zm-235.25-56.964l14.22 27.039-112.65 58.033-28.32-54.185-43.83-84.004 170.58 53.117zm-171.75-53.01l44.25 84.538 28.11 53.865-150.384 89.241 78.024-227.644zm-67.76 36.872l-86.255 49.376 18.49-67.866 67.765 18.49zM777.016 265.371l139.478-75.24-39.973 133.486L769 290.807l8.016-25.436zm140.974-76.523l153.37-87.637-78.019 227.537-75.351-139.9zm228.94 50.873l112.11-57.713 59.32 112.326-171.43-54.613zm172.71 54.72l-59.63-112.967 47.56-24.475 103.03 32.384-23.3 69.789-67.66 35.269z" fill="#A2C75E" fill-opacity=".5"/></svg>