<svg width="414" height="285" fill="none" xmlns="http://www.w3.org/2000/svg"><path d="M-553 134.484l47.561-24.848 57.359 18.08-28.59 85.5-38.922 20.039-37.497-74.367v1.959l36.695 72.764-36.695 18.881v.98l37.051-19.059 11.312 22.443-8.818 28.144h.891l8.818-28.055v-.356l-11.401-22.622 39.1-20.128c.089-.089.178-.178.178-.267l28.68-85.678 86.127 27.075h.356l39.813-20.485 11.935 22.622c.089.089.178.178.267.178l143.308 44.71L-188.006 285h.891l22.445-82.294L-119.068 285h.979l-46.136-83.273 54.419-31.172 57.36 15.675-22.98 84.342L-100.543 285h1.782l24.048-13.716c.089-.089.178-.178.178-.267l38.922-142.945h-.178c.178 0 .267-.178.356-.267L81.776 64.659c.09-.089.178-.178.178-.267l6.77-21.464 37.229 11.4h.357l71.253-36.694 38.031 70.449c.089.089.178.178.267.178l38.032 11.578-6.413 21.82v.357l63.415 117.028c0 .178 0 .267.178.356a.57.57 0 00.535 0l117.656-64.837c.09-.089.179-.179.179-.268l6.145-19.593 39.011 11.667h.357l70.54-38.03 37.497 69.558c.089.089.178.178.267.178l38.032 11.4-6.502 21.998v.357L663.558 285h.98l-28.857-53.437 6.412-21.821 86.573 25.917v-.89l-86.216-25.828 26.363-89.775 59.853 110.972v-1.871L669.08 117.741c-.089-.089-.178-.178-.267-.178L484.179 62.255h-.09c-.089 0-.178 0-.178.089l-118.903 64.125L301.592 7.838c-.089-.09-.178-.178-.267-.178L275.941.09h-3.117l27.789 8.282-26.631 90.487-37.764-11.578-37.943-70.27L231.408.001h-1.959l-31.53 16.298L189.101 0h-.979l8.995 16.655-71.075 36.605-37.051-11.311L102.173 0h-.891L88.189 41.77-.788 14.606 27.09 0h-1.96L-1.857 14.161-9.517.001h-.98l7.571 13.982L-49.596 0h-3.118L-2.57 15.052l-33.4 111.417L-98.76 9.975-95.822 0h-.89l-2.673 9.174L-109.984 0h-1.336l11.4 9.886-125.227 74.278L-198.694 0h-.89l-26.631 84.61-144.377-45.957h-.178c-.089 0-.178 0-.178.09L-553 133.504v.979zm827.605-34.467l89.601 27.342-12.024 40.168-21.02 70.181-62.97-116.049 6.413-21.642zm174.036 73.833l-116.588 64.303 20.931-70.092 12.113-40.434 89.69 26.807-6.146 19.416zm192.918 34.823l-37.853-11.31-37.408-69.38 47.828-25.828 53.975 16.12-26.542 90.398zm-75.707-81.581l-25.383-47.025 72.411 21.642-47.028 25.383zm-81.495-63.858l54.954 16.477 25.829 47.827-70.363 37.94-38.833-11.667 28.413-90.577zm-29.303 90.399l-89.156-26.719 117.39-63.323-28.234 90.042zM301.325 9.173l62.614 117.118-89.067-27.164 26.453-89.953zm-805.606 99.929l75.707-39.455-19.15 57.267-56.557-17.812zm196.036 47.47l-11.846-22.533 93.876-48.36 23.602 45.154 36.518 70.003-142.15-44.264zm143.129 44.175l-36.873-70.448-23.425-44.888 125.317-74.367-65.019 189.703zm56.468-30.727l71.877-41.146-15.408 56.554-56.469-15.408zm189.8-106.162l-116.23 62.7 33.31-111.24 89.6 27.343-6.68 21.197zm-117.478 63.769l-127.81 73.031 65.018-189.614 62.792 116.583zm-190.78-42.394l-93.431 48.094-49.432-93.605 142.863 45.51zm-143.931-45.6l49.699 94.139-39.635 20.395-85.86-26.986 19.417-58.157 56.379-29.391z" fill="#A2C75E" fill-opacity=".5"/></svg>