<svg width="29" height="29" fill="none" xmlns="http://www.w3.org/2000/svg"><path d="M20.953 6.597a1.45 1.45 0 100 2.9 1.45 1.45 0 000-2.9zm5.558 2.924a9.17 9.17 0 00-.556-2.936 5.969 5.969 0 00-1.401-2.138 5.68 5.68 0 00-2.14-1.39 8.82 8.82 0 00-2.935-.568c-1.281-.072-1.692-.072-4.979-.072-3.286 0-3.697 0-4.978.072a8.82 8.82 0 00-2.936.568 5.776 5.776 0 00-2.139 1.39 5.68 5.68 0 00-1.39 2.138 8.82 8.82 0 00-.568 2.936c-.072 1.281-.072 1.692-.072 4.979s0 3.697.072 4.978a8.82 8.82 0 00.568 2.936c.295.81.77 1.54 1.39 2.14a5.776 5.776 0 002.139 1.389 8.824 8.824 0 002.936.568c1.28.072 1.692.072 4.978.072 3.287 0 3.698 0 4.979-.072a8.822 8.822 0 002.936-.568 5.68 5.68 0 002.139-1.39 5.862 5.862 0 001.401-2.139 9.17 9.17 0 00.556-2.936c0-1.28.073-1.692.073-4.978 0-3.287 0-3.698-.073-4.979zm-2.175 9.812a6.78 6.78 0 01-.41 2.248 3.698 3.698 0 01-.907 1.39 3.846 3.846 0 01-1.39.905 6.78 6.78 0 01-2.247.411c-1.208.06-1.655.073-4.833.073s-3.625 0-4.834-.073a6.921 6.921 0 01-2.344-.362 3.951 3.951 0 01-1.329-.906 3.625 3.625 0 01-.894-1.39 6.694 6.694 0 01-.484-2.296c0-1.208-.072-1.655-.072-4.833s0-3.625.072-4.834a6.694 6.694 0 01.423-2.295c.213-.51.54-.965.955-1.33.367-.415.82-.745 1.33-.966a6.924 6.924 0 012.295-.411c1.208 0 1.655-.072 4.833-.072s3.625 0 4.834.072a6.78 6.78 0 012.247.41c.55.205 1.042.536 1.438.968.396.37.706.824.906 1.329.269.735.408 1.512.411 2.295.06 1.209.073 1.656.073 4.834s-.012 3.625-.073 4.833zM14.5 8.301a6.199 6.199 0 106.211 6.199 6.187 6.187 0 00-6.21-6.199zm0 10.223a4.024 4.024 0 110-8.05 4.024 4.024 0 010 8.05z" fill="#A2C75E"/></svg>