<svg width="24" height="23" viewBox="0 0 24 23" fill="none" xmlns="http://www.w3.org/2000/svg">
<path d="M24 11.003C24 17.0798 18.6274 22.0061 12 22.0061C5.37258 22.0061 0 17.0798 0 11.003C0 4.92623 5.37258 0 12 0C18.6274 0 24 4.92623 24 11.003Z" fill="#A2C75E"/>
<g clip-path="url(#clip0_35_844)">
<path d="M17.5333 5.56744L14.9246 5.01544C14.6412 4.95564 14.3502 5.09134 14.2348 5.33514L13.0308 7.91113C12.9254 8.13653 12.9957 8.40103 13.2039 8.55513L14.7239 9.69593C13.8209 11.46 12.2431 12.9274 10.2791 13.7715L9.0349 12.3777C8.86433 12.1868 8.57837 12.1224 8.33255 12.219L5.52315 13.323C5.25475 13.4311 5.10676 13.6979 5.17197 13.9578L5.77399 16.3498C5.8367 16.5982 6.0775 16.7776 6.36095 16.7776C12.785 16.7776 17.9999 12.0051 17.9999 6.10563C17.9999 5.84804 17.8068 5.62494 17.5333 5.56744Z" fill="#1D1D1D"/>
</g>
<defs>
<clipPath id="clip0_35_844">
<rect width="14.4" height="13.2036" fill="white" transform="translate(3.59991 4.40122)"/>
</clipPath>
</defs>
</svg>
