<svg width="24" height="24" fill="none" xmlns="http://www.w3.org/2000/svg"><path d="M8.826 8.27a.75.75 0 00-1.326.48v6.5a.75.75 0 101.5 0v-4.428l2.424 2.908a.75.75 0 001.152 0L15 10.822v4.428a.75.75 0 101.5 0v-6.5a.75.75 0 00-1.326-.48L12 12.079l-3.174-3.81zM6.25 3A3.25 3.25 0 003 6.25v11.5A3.25 3.25 0 006.25 21h11.5A3.25 3.25 0 0021 17.75V6.25A3.25 3.25 0 0017.75 3H6.25zM4.5 6.25c0-.966.784-1.75 1.75-1.75h11.5c.966 0 1.75.784 1.75 1.75v11.5a1.75 1.75 0 01-1.75 1.75H6.25a1.75 1.75 0 01-1.75-1.75V6.25z" fill="#A2C75E"/></svg>