<svg width="30" height="29" fill="none" xmlns="http://www.w3.org/2000/svg"><path d="M26.808 7.914a15.222 15.222 0 00-.12-1.558 5.183 5.183 0 00-.448-1.305 4.423 4.423 0 00-.858-1.209 4.723 4.723 0 00-1.208-.858 5.172 5.172 0 00-1.305-.435 12.338 12.338 0 00-1.547-.132H8.14a15.08 15.08 0 00-1.56.12 5.16 5.16 0 00-1.304.447 4.422 4.422 0 00-1.209.858 4.724 4.724 0 00-.857 1.209 5.172 5.172 0 00-.435 1.305 12.338 12.338 0 00-.133 1.546v13.183c.013.522.054 1.042.12 1.559.09.453.241.892.448 1.305.215.448.506.857.857 1.208.356.348.763.638 1.209.858.413.203.852.349 1.305.435.512.077 1.029.121 1.546.133H21.31a15.222 15.222 0 001.56-.12c.452-.09.891-.241 1.304-.448a4.422 4.422 0 001.208-.858c.348-.355.638-.763.858-1.208.203-.414.35-.853.435-1.305.077-.512.122-1.029.133-1.547V7.915zM15.003 22.958a8.604 8.604 0 01-4.145-1.087l-4.591 1.208 1.208-4.495a8.591 8.591 0 01-1.208-4.326 8.676 8.676 0 118.736 8.7zm0-15.865A7.25 7.25 0 008.9 18.125l.169.278-.725 2.646 2.755-.75.266.158a7.25 7.25 0 003.625 1.003 7.25 7.25 0 100-14.5l.012.133zm4.229 10.295a2.2 2.2 0 01-1.462 1.027 2.815 2.815 0 01-1.353-.085 10.766 10.766 0 01-1.209-.459 9.667 9.667 0 01-3.697-3.262 4.204 4.204 0 01-.882-2.236 2.416 2.416 0 01.76-1.812.785.785 0 01.58-.266h.34c.132 0 .313 0 .483.374.169.375.616 1.499.676 1.607a.41.41 0 010 .375 1.377 1.377 0 01-.217.363c-.109.133-.23.29-.326.386-.097.097-.218.218-.097.435.329.555.736 1.06 1.208 1.499a6.04 6.04 0 001.74 1.075c.218.109.35.097.471 0s.544-.628.69-.846c.144-.217.29-.181.482-.109.194.073 1.27.593 1.487.701.217.109.35.157.41.254.053.316.024.64-.084.943v.036z" fill="#A2C75E"/></svg>