<svg width="197" height="31" fill="none" xmlns="http://www.w3.org/2000/svg"><path d="M3.61 4.804c-.112.915-.112 1.716-.225 2.631v2.86c0 .915 0 1.945-.113 2.974v15.329h8.462c1.58 0 2.934 0 4.288-.115 1.24-.114 2.482-.229 3.498-.457 1.015-.23 1.918-.458 2.707-.801.79-.343 1.354-.687 1.918-1.144l-1.015 4.232H0c0-1.03.113-2.059.113-3.203 0-1.143.113-2.287.113-3.431v-10.41c0-1.03 0-2.059-.113-2.974 0-1.03 0-1.945-.113-2.86.113-.915 0-1.716 0-2.63h3.61zm55.738 2.632v3.774c-.677-.457-1.24-.915-2.03-1.258-.79-.343-1.467-.572-2.257-.686-.677 0-1.467-.115-2.257-.115s-1.58-.114-2.37-.114H39.266v8.236h10.041c1.016 0 2.031 0 2.821-.114a38.34 38.34 0 002.031-.343c.564-.23 1.016-.458 1.354-.687.339-.229.564-.572.79-1.03v6.064c-.226-.344-.451-.687-.79-.916-.338-.228-.79-.457-1.354-.686-.564-.229-1.241-.343-2.03-.458-.79-.114-1.693-.114-2.822-.114H39.266v10.066h9.026c1.58 0 2.934 0 4.288-.114 1.24-.114 2.482-.229 3.497-.343 1.016-.114 1.918-.343 2.708-.686.79-.23 1.354-.572 1.918-1.03l-1.015 3.775H36.106c.112-1.144.112-2.288.112-3.546 0-1.259.113-2.517.113-3.89v-8.236c0-1.372 0-2.63-.113-3.889 0-1.258-.113-2.402-.113-3.546h23.243v-.114zm3.723 6.405c0-.571.113-1.143.226-1.601.226-.572.451-1.03.903-1.601.451-.458.902-.916 1.466-1.373.565-.458 1.354-.8 2.144-1.144.79-.343 1.693-.572 2.708-.8 1.016-.23 2.031-.344 3.272-.344h1.128c1.242 0 2.37.114 3.498.229a14.12 14.12 0 013.16.686c1.015.343 1.918.686 2.82 1.03.903.457 1.692.915 2.37 1.372v3.89a28.307 28.307 0 00-2.596-2.631c-.902-.687-1.805-1.373-2.82-1.83a15.94 15.94 0 00-3.047-1.03c-1.015-.229-2.143-.343-3.385-.343h-.902c-1.241 0-2.257.228-3.272.457a15.445 15.445 0 00-2.595 1.03c-.677.457-1.241.915-1.58 1.373-.338.457-.564 1.029-.451 1.487 0 .457.113 1.03.338 1.372.226.458.564.801 1.016 1.144.451.343.902.572 1.467.915.564.343 1.128.458 1.805.572.677.115 1.354.23 2.03.343.678.115 1.468.115 2.144.115h1.129c.902 0 1.805 0 2.82.114.903.115 1.806.229 2.708.458.903.229 1.693.457 2.37.8.79.344 1.354.801 1.918 1.259a5.053 5.053 0 011.354 1.716c.338.686.564 1.372.564 2.173 0 .572 0 1.144-.226 1.716-.225.572-.451 1.144-.902 1.602a9.083 9.083 0 01-1.467 1.487c-.564.457-1.354.8-2.144 1.143-.79.344-1.692.572-2.708.801-1.015.229-2.03.343-3.272.343h-1.128c-.79 0-1.692 0-2.482-.114-.79-.114-1.693-.229-2.483-.343-.79-.115-1.58-.343-2.369-.458-.79-.229-1.467-.457-2.257-.686-.677-.229-1.353-.572-1.918-.8-.564-.344-1.128-.573-1.58-.916v-3.89c.903 1.03 1.806 1.831 2.821 2.632 1.016.686 2.144 1.372 3.273 1.83 1.128.458 2.369.8 3.497 1.03 1.241.228 2.37.343 3.61.343h.903c1.242 0 2.257-.23 3.272-.458 1.016-.229 1.806-.686 2.483-1.03a4.008 4.008 0 001.58-1.487c.338-.571.563-1.029.45-1.601 0-.572-.112-1.03-.45-1.487-.226-.458-.565-.8-1.016-1.144-.451-.343-.903-.686-1.467-.915-.564-.229-1.241-.458-1.918-.572a102.08 102.08 0 00-2.257-.343c-.79-.115-1.58-.115-2.37-.115-.902 0-1.804 0-2.82-.114-1.015-.114-1.918-.229-2.82-.458a22.483 22.483 0 01-2.596-.8c-.79-.343-1.466-.687-2.143-1.144-.564-.458-1.129-1.03-1.467-1.602-.113-.8-.226-1.487-.339-2.288zm26.742-6.405h28.884v3.774c-.564-.457-1.128-.8-1.805-1.03a21.268 21.268 0 00-2.031-.685c-.79-.115-1.58-.344-2.483-.344-.902-.114-2.031-.114-3.159-.114h-3.385v12.354c0 1.03 0 2.174.113 3.203 0 1.03.113 2.06.113 2.974.113 1.03.113 1.945.226 2.746h-3.724c.113-.801.113-1.602.226-2.517 0-.915.113-1.945.113-2.974 0-1.03 0-2.173.113-3.203V9.037h-5.755c-.79.114-1.354.114-1.918.229-.564.114-1.128.114-1.58.229-.45.114-.902.228-1.353.457a3.737 3.737 0 00-1.354.572c-.452.229-.79.458-1.129.687V7.435h-.112zm31.027 12.925l9.252-14.413 7.334 12.354c.677 1.03 1.354 2.174 2.031 3.203l2.031 3.089c.677 1.03 1.354 2.059 2.031 2.974s1.241 1.83 1.918 2.746h-3.949c-.564-.916-1.128-2.06-1.805-3.203-.677-1.144-1.467-2.403-2.257-3.775h-16.36c-.79 1.258-1.58 2.516-2.257 3.66-.677 1.144-1.354 2.288-1.918 3.318h-2.821c.564-.687 1.016-1.488 1.58-2.288.564-.801 1.128-1.602 1.692-2.517.565-.915 1.129-1.716 1.693-2.63.677-.687 1.241-1.602 1.805-2.518zm15.683 1.602l-6.882-11.668-7.56 11.668h14.442zm4.175-14.527h28.885v3.774c-.565-.457-1.129-.8-1.806-1.03a21.078 21.078 0 00-2.031-.685c-.789-.115-1.579-.344-2.482-.344-.903-.114-2.031-.114-3.159-.114h-3.385v12.354c0 1.03 0 2.174.113 3.203 0 1.03.113 2.06.113 2.974.113 1.03.113 1.945.225 2.746h-3.723c.113-.801.113-1.602.226-2.517 0-.915.112-1.945.112-2.974 0-1.03 0-2.173.113-3.203V9.037h-5.754c-.677 0-1.354.114-1.918.114-.564 0-1.128.115-1.58.23-.451.114-.902.228-1.354.457a4.152 4.152 0 00-1.241.572c-.451.229-.79.457-1.128.686v-3.66h-.226zm55.061 0v3.774c-.677-.457-1.241-.915-2.031-1.258-.79-.343-1.467-.572-2.257-.686-.789-.115-1.579-.229-2.369-.229-.79 0-1.58-.114-2.369-.114h-11.17v8.236h10.041c1.016 0 2.031 0 2.821-.115.79-.114 1.467-.228 2.031-.343.564-.229 1.015-.457 1.354-.686.338-.229.564-.572.79-1.03v6.063c-.226-.343-.452-.686-.79-.915-.339-.229-.79-.458-1.354-.686-.564-.23-1.241-.344-2.031-.458-.79-.114-1.692-.114-2.821-.114h-10.041V28.94h9.026c1.58 0 2.933 0 4.287-.114 1.242-.115 2.483-.23 3.498-.344 1.016-.114 1.918-.343 2.708-.686.79-.343 1.354-.572 1.918-1.03l-1.015 3.776h-23.582c.113-1.144.113-2.288.113-3.547 0-1.258.113-2.516.113-3.889v-8.234c0-1.373 0-2.631-.113-3.89 0-1.258-.113-2.402-.113-3.545h23.356z" fill="#fff"/><path fill-rule="evenodd" clip-rule="evenodd" d="M20.422 0c1.919 0 3.498 1.601 3.498 3.546 0 1.945-1.58 3.546-3.498 3.546-1.918 0-3.497-1.601-3.497-3.546 0-1.945 1.58-3.546 3.497-3.546z" fill="#A2C75E"/></svg>