<svg width="100" height="79" fill="none" xmlns="http://www.w3.org/2000/svg"><path d="M61.349 73.749l4.666-6.95 3.72 5.979c.347.516.662 1.031 1.009 1.547.347.516.693 1.002 1.04 1.518.347.486.694.971 1.009 1.426.347.456.662.91.977 1.305h-2.017c-.253-.455-.568-.97-.915-1.547-.346-.577-.725-1.154-1.135-1.791h-8.291c-.41.607-.788 1.183-1.135 1.76s-.694 1.093-1.009 1.609H57.85c.252-.365.536-.729.82-1.093l.85-1.183c.284-.395.6-.82.883-1.245.347-.455.662-.88.946-1.335zm7.913.758l-3.468-5.614-3.846 5.614h7.314z" fill="#fff"/><path fill-rule="evenodd" clip-rule="evenodd" d="M68.19 35.023c-1.166.546-3.72 3.278-4.729 4.249-2.364 2.276-12.673 11.897-13.304 13.02l18.033.03v-17.3zM31.81 52.322l18.285-.06L31.81 34.84v17.481zm13.209-22.094l.031-16.176C45.02 13.05 31.935 0 31.935 0v12.929c0 5.463-.82 3.793 4.477 8.892 1.86 1.821 7.377 7.921 8.607 8.407z" fill="#93C955"/><path d="M1.797 66.252c-.032.395-.032.82-.063 1.275-.032.455-.032.91-.032 1.366 0 .485-.031.971-.031 1.457v7.375H5.99c.788 0 1.513-.03 2.144-.061.662-.03 1.23-.122 1.765-.213a6.576 6.576 0 001.356-.364c.378-.152.693-.334.945-.546l-.504 2.033H0c.032-.485.063-1.001.063-1.517.032-.547.032-1.093.063-1.67 0-.576.032-1.153.032-1.76V70.35c0-.486-.032-.972-.032-1.457 0-.486-.031-.941-.031-1.366-.032-.455-.032-.88-.063-1.275h1.765zm28.342 1.276v1.82c-.316-.242-.662-.455-1.01-.576a6.96 6.96 0 00-1.134-.334 5.348 5.348 0 00-1.198-.121c-.41-.03-.788-.03-1.198-.03h-5.643v3.945h5.139c.535 0 1.008-.03 1.418-.061a4.24 4.24 0 001.009-.182c.284-.091.504-.182.694-.334.189-.121.315-.303.41-.486v2.884a1.148 1.148 0 00-.41-.456 2.888 2.888 0 00-.694-.334c-.284-.09-.63-.151-1.04-.212-.41-.06-.883-.06-1.42-.06h-5.075v4.825h4.572c.788 0 1.513-.03 2.143-.06.662-.031 1.23-.092 1.766-.183.536-.09.977-.182 1.355-.334.379-.121.694-.303.946-.485l-.504 1.82H18.316c.032-.515.064-1.092.095-1.699s.031-1.244.063-1.882c0-.637.032-1.305.032-1.972 0-.668 0-1.305-.032-1.973 0-.637-.032-1.275-.063-1.882a190.47 190.47 0 00-.095-1.7H30.14v.062zm1.891 3.065c0-.273.032-.516.127-.79.094-.272.252-.515.44-.758.19-.243.474-.455.758-.668a4.986 4.986 0 011.071-.546 7.93 7.93 0 011.356-.395c.504-.09 1.04-.151 1.64-.182h.504c.63 0 1.198.03 1.765.122.568.09 1.104.182 1.608.334.504.151.977.303 1.419.516.441.212.85.424 1.198.667v1.882a9.95 9.95 0 00-1.324-1.244 9.018 9.018 0 00-1.42-.88c-.472-.243-1.008-.395-1.544-.516-.536-.122-1.103-.152-1.702-.152h-.442c-.63.03-1.166.09-1.67.243a5.368 5.368 0 00-1.261.485 2.42 2.42 0 00-.789.668c-.189.243-.252.485-.252.728s.063.486.19.668c.125.212.283.394.504.546.22.152.441.304.725.425.284.122.599.213.914.304.315.09.662.121 1.04.182.379.03.726.06 1.104.06h.63c.473 0 .946.03 1.419.061.473.06.914.122 1.356.213.44.09.82.242 1.198.394.378.152.693.364.977.607.284.243.504.516.693.82.158.303.284.667.284 1.031.032.273-.031.547-.126.82a2.817 2.817 0 01-.441.789 3.29 3.29 0 01-.757.698 5.04 5.04 0 01-1.072.577c-.41.151-.851.303-1.355.394-.505.091-1.04.182-1.64.182h-.536c-.41 0-.85-.03-1.292-.06a15.889 15.889 0 01-2.46-.395c-.378-.091-.756-.213-1.134-.334a7.626 7.626 0 01-1.009-.394c-.315-.152-.567-.304-.82-.456v-1.881c.442.485.915.91 1.45 1.244.536.334 1.072.637 1.671.88a9.98 9.98 0 001.797.516c.63.121 1.23.152 1.829.152h.441a8.784 8.784 0 001.671-.243 4.308 4.308 0 001.261-.516c.347-.212.6-.425.788-.698a1.3 1.3 0 00.253-.79c0-.272-.095-.515-.19-.728a1.781 1.781 0 00-.504-.576 4.388 4.388 0 00-.757-.425c-.283-.121-.63-.212-.977-.303a43.863 43.863 0 00-1.135-.183c-.41-.03-.82-.06-1.23-.06-.472 0-.945-.03-1.418-.061-.473-.03-.946-.121-1.419-.212a9.002 9.002 0 01-1.292-.365 3.97 3.97 0 01-1.072-.576 2.186 2.186 0 01-.725-.79c-.158-.303-.316-.637-.316-1.031zm13.588-3.066h14.66v1.821c-.284-.212-.6-.364-.915-.516a8.266 8.266 0 00-1.04-.333 7.359 7.359 0 00-1.261-.183c-.473-.03-1.009-.06-1.64-.06H53.69v6.009c0 .516.031 1.032.031 1.548s.032.97.063 1.456c.032.456.063.91.095 1.336h-1.892c.032-.364.063-.79.095-1.245.031-.455.031-.91.063-1.426.032-.516.032-1.032.032-1.578v-6.1h-1.734c-.41 0-.788 0-1.135.03s-.662.03-.946.06c-.284.031-.568.092-.82.122-.252.06-.473.122-.693.213-.221.09-.442.182-.63.273a3.16 3.16 0 00-.6.364v-1.79zm25.788 0h14.66v1.821c-.284-.212-.599-.364-.914-.516-.316-.151-.662-.242-1.04-.333a7.357 7.357 0 00-1.262-.183 24.72 24.72 0 00-1.639-.06h-1.734v6.009c0 .516.032 1.032.032 1.548s.031.97.063 1.456c.031.456.063.911.094 1.336h-1.891c.031-.364.063-.79.094-1.245.032-.455.032-.91.063-1.426.032-.516.032-1.032.032-1.578v-6.1h-1.766c-.41 0-.788 0-1.134.03-.347.03-.662.03-.946.06-.284.031-.568.092-.82.122a4.54 4.54 0 00-.694.213c-.22.09-.44.182-.63.273a3.16 3.16 0 00-.599.364v-1.79h.031zm27.933 0v1.821c-.316-.243-.662-.455-1.01-.577a6.962 6.962 0 00-1.134-.334 5.35 5.35 0 00-1.198-.12c-.41-.031-.788-.031-1.198-.031h-5.643v3.945h5.138c.537 0 1.01-.03 1.42-.06.409-.03.724-.092 1.008-.183.284-.09.504-.182.694-.334.189-.12.315-.303.41-.485v2.883a1.149 1.149 0 00-.41-.455 2.891 2.891 0 00-.694-.334c-.284-.091-.63-.152-1.04-.212-.41-.03-.883-.061-1.419-.061h-5.139v4.825h4.572c.788 0 1.513-.03 2.143-.06.662-.03 1.23-.091 1.766-.182s.977-.182 1.355-.334c.379-.152.694-.304.946-.486l-.504 1.821h-11.98c.031-.516.063-1.093.094-1.7.032-.606.032-1.244.063-1.881 0-.637.032-1.305.032-1.973 0-.667 0-1.305-.032-1.972 0-.638-.031-1.275-.063-1.882-.031-.607-.063-1.184-.094-1.7h11.917v.061z" fill="#fff"/><path fill-rule="evenodd" clip-rule="evenodd" d="M10.403 63.916c1.01 0 1.797.789 1.797 1.73 0 .97-.82 1.73-1.797 1.73-1.009 0-1.797-.79-1.797-1.73-.031-.941.788-1.73 1.797-1.73z" fill="#93C955"/></svg>